<svg width="24" height="24" viewBox="0 0 24 24" fill="none" xmlns="http://www.w3.org/2000/svg" ><path d="M9.375 10.9153C9.48904 10.8495 9.58373 10.7548 9.64956 10.6407C9.71539 10.5267 9.75003 10.3973 9.75 10.2656V3.51562C9.74933 3.39605 9.72008 3.27837 9.66469 3.1724C9.6093 3.06643 9.52937 2.97523 9.43157 2.90643C9.33378 2.83762 9.22095 2.7932 9.10249 2.77686C8.98404 2.76052 8.8634 2.77274 8.75062 2.8125C6.56154 3.58726 4.72061 5.11748 3.55877 7.12807C2.39692 9.13865 1.99037 11.4977 2.41219 13.7812C2.43405 13.8993 2.48395 14.0104 2.55769 14.1052C2.63143 14.2 2.72686 14.2757 2.83594 14.3259C2.93424 14.3719 3.04148 14.3956 3.15 14.3953C3.28164 14.3954 3.41097 14.3608 3.525 14.295L9.375 10.9153ZM8.25 4.65188V9.8325L3.76125 12.4228C3.75 12.2812 3.75 12.1388 3.75 12C3.75133 10.4797 4.17215 8.98928 4.96612 7.69279C5.76009 6.3963 6.89642 5.34404 8.25 4.65188ZM20.4694 7.17375C20.4609 7.15687 20.4525 7.13906 20.4422 7.12219C20.4319 7.10531 20.4234 7.09125 20.4131 7.07625C19.5535 5.60794 18.3248 4.39001 16.8489 3.54338C15.3731 2.69675 13.7014 2.25087 12 2.25C11.8011 2.25 11.6103 2.32902 11.4697 2.46967C11.329 2.61032 11.25 2.80109 11.25 3V11.6091L3.86156 15.9122C3.77582 15.9619 3.70079 16.0281 3.64079 16.107C3.58079 16.1858 3.53701 16.2758 3.51199 16.3717C3.48697 16.4676 3.48121 16.5675 3.49502 16.6656C3.50884 16.7638 3.54197 16.8582 3.5925 16.9434C4.6765 18.7894 6.33788 20.2272 8.32024 21.0351C10.3026 21.8431 12.4958 21.9761 14.5612 21.4138C16.6267 20.8514 18.4498 19.625 19.749 17.9236C21.0482 16.2223 21.7514 14.1407 21.75 12C21.7522 10.307 21.3106 8.64297 20.4694 7.17375ZM12.75 3.78375C13.9395 3.89324 15.0911 4.25959 16.1252 4.85749C17.1593 5.4554 18.0513 6.27063 18.7397 7.24688L12.75 10.7353V3.78375ZM12 20.25C10.6907 20.2466 9.40081 19.9333 8.23589 19.3356C7.07097 18.7379 6.06415 17.8729 5.29781 16.8113L12.3666 12.6947L12.3872 12.6816L19.4906 8.54437C20.0704 9.80132 20.3246 11.184 20.2299 12.5649C20.1351 13.9459 19.6943 15.2808 18.9482 16.4468C18.2021 17.6127 17.1746 18.5722 15.9604 19.2368C14.7462 19.9014 13.3842 20.2499 12 20.25Z" fill="#001C30"></path></svg>